<svg height="846" width="720" xmlns="http://www.w3.org/2000/svg">
<rect height="846" fill="#555" width="720"></rect>
<text fill="#7f7" font-family="Courier New" font-size="12" xml:space="preserve">
<tspan x="10" y="26">3 megabytes installed</tspan>
<tspan x="10" y="42"></tspan>
<tspan x="10" y="58">node_modules</tspan>
<tspan x="10" y="74">└─┬ gulp-express@0.3.5 </tspan>
<tspan x="10" y="90">  ├─┬ chalk@1.1.3 </tspan>
<tspan x="10" y="106">  │ ├── ansi-styles@2.2.1 </tspan>
<tspan x="10" y="122">  │ ├── escape-string-regexp@1.0.5 </tspan>
<tspan x="10" y="138">  │ ├─┬ has-ansi@2.0.0 </tspan>
<tspan x="10" y="154">  │ │ └── ansi-regex@2.1.1 </tspan>
<tspan x="10" y="170">  │ ├── strip-ansi@3.0.1 </tspan>
<tspan x="10" y="186">  │ └── supports-color@2.0.0 </tspan>
<tspan x="10" y="202">  ├─┬ debug@2.6.3 </tspan>
<tspan x="10" y="218">  │ └── ms@0.7.2 </tspan>
<tspan x="10" y="234">  ├── deepmerge@0.2.10 </tspan>
<tspan x="10" y="250">  ├─┬ event-stream@3.2.2 </tspan>
<tspan x="10" y="266">  │ ├── duplexer@0.1.1 </tspan>
<tspan x="10" y="282">  │ ├── from@0.1.7 </tspan>
<tspan x="10" y="298">  │ ├── map-stream@0.1.0 </tspan>
<tspan x="10" y="314">  │ ├── pause-stream@0.0.11 </tspan>
<tspan x="10" y="330">  │ ├── split@0.3.3 </tspan>
<tspan x="10" y="346">  │ ├── stream-combiner@0.0.4 </tspan>
<tspan x="10" y="362">  │ └── through@2.3.8 </tspan>
<tspan x="10" y="378">  └─┬ tiny-lr@0.0.9 </tspan>
<tspan x="10" y="394">    ├─┬ body-parser@1.17.1 </tspan>
<tspan x="10" y="410">    │ ├── bytes@2.4.0 </tspan>
<tspan x="10" y="426">    │ ├── content-type@1.0.2 </tspan>
<tspan x="10" y="442">    │ ├── debug@2.6.1 </tspan>
<tspan x="10" y="458">    │ ├── depd@1.1.0 </tspan>
<tspan x="10" y="474">    │ ├─┬ http-errors@1.6.1 </tspan>
<tspan x="10" y="490">    │ │ ├── inherits@2.0.3 </tspan>
<tspan x="10" y="506">    │ │ ├── setprototypeof@1.0.3 </tspan>
<tspan x="10" y="522">    │ │ └── statuses@1.3.1 </tspan>
<tspan x="10" y="538">    │ ├── iconv-lite@0.4.15 </tspan>
<tspan x="10" y="554">    │ ├─┬ on-finished@2.3.0 </tspan>
<tspan x="10" y="570">    │ │ └── ee-first@1.1.1 </tspan>
<tspan x="10" y="586">    │ ├── qs@6.4.0 </tspan>
<tspan x="10" y="602">    │ ├─┬ raw-body@2.2.0 </tspan>
<tspan x="10" y="618">    │ │ └── unpipe@1.0.0 </tspan>
<tspan x="10" y="634">    │ └─┬ type-is@1.6.15 </tspan>
<tspan x="10" y="650">    │   ├── media-typer@0.3.0 </tspan>
<tspan x="10" y="666">    │   └─┬ mime-types@2.1.15 </tspan>
<tspan x="10" y="682">    │     └── mime-db@1.27.0 </tspan>
<tspan x="10" y="698">    ├── debug@0.8.1 </tspan>
<tspan x="10" y="714">    ├─┬ faye-websocket@0.7.3 </tspan>
<tspan x="10" y="730">    │ └─┬ websocket-driver@0.6.5 </tspan>
<tspan x="10" y="746">    │   └── websocket-extensions@0.1.1 </tspan>
<tspan x="10" y="762">    ├─┬ noptify@0.0.3 </tspan>
<tspan x="10" y="778">    │ └─┬ nopt@2.0.0 </tspan>
<tspan x="10" y="794">    │   └── abbrev@1.1.0 </tspan>
<tspan x="10" y="810">    ├── parseurl@1.3.1 </tspan>
<tspan x="10" y="826">    └── qs@0.6.6</tspan>
</text>
</svg>
